# xmcd
#
# Track frame offsets:
#	150
#	18565
#	37402
#	61074
#	85064
#	102302
#	131161
#	149040
#	165676
#	182655
#
# Disc length: 2677 seconds
#
# Revision: 1
# Processed by: cddbd v1.5.2PL0 Copyright (c) Steve Scherf et al.
# Submitted via: audiograbber 1.83.01
#
DISCID=900a730a
DTITLE=Riverhead Slide - Hangin' with the Blues
DYEAR=2015
DGENRE=Blues
TTITLE0=Hangin' with the Blues
TTITLE1=Big Smoke Blues
TTITLE2=Evil
TTITLE3=Leaving You Blues
TTITLE4=Money Grows On Trees
TTITLE5=Need Your Love So Bad
TTITLE6=Sweep This House
TTITLE7=Coming Home
TTITLE8=Wedding Ring
TTITLE9=Red Hot Blues
EXTD=
EXTT0=
EXTT1=
EXTT2=
EXTT3=
EXTT4=
EXTT5=
EXTT6=
EXTT7=
EXTT8=
EXTT9=
PLAYORDER=
